<svg xmlns="http://www.w3.org/2000/svg" width="71" height="72" viewBox="0 0 71 72">
  <g id="Group_6" data-name="Group 6" transform="translate(0 0.281)">
    <g id="Rectangle_659" data-name="Rectangle 659" transform="translate(0 -0.281)" fill="#fff" stroke="#85d4be" stroke-width="2">
      <rect width="71" height="72" rx="25" stroke="none"/>
      <rect x="1" y="1" width="69" height="70" rx="24" fill="none"/>
    </g>
    <path id="Icon_awesome-twitter" data-name="Icon awesome-twitter" d="M38.748,12.122c.027.384.027.767.027,1.151,0,11.7-8.906,25.184-25.184,25.184A25.013,25.013,0,0,1,0,34.484a18.311,18.311,0,0,0,2.137.11,17.727,17.727,0,0,0,10.989-3.782A8.867,8.867,0,0,1,4.85,24.673a11.162,11.162,0,0,0,1.672.137,9.362,9.362,0,0,0,2.329-.3,8.852,8.852,0,0,1-7.1-8.687v-.11a8.914,8.914,0,0,0,4,1.123A8.864,8.864,0,0,1,3.014,5,25.16,25.16,0,0,0,21.265,14.26a9.992,9.992,0,0,1-.219-2.028A8.86,8.86,0,0,1,36.364,6.176a17.427,17.427,0,0,0,5.618-2.137,8.827,8.827,0,0,1-3.891,4.878,17.744,17.744,0,0,0,5.1-1.37,19.027,19.027,0,0,1-4.439,4.576Z" transform="translate(14.552 15.14)" fill="#85d4be"/>
  </g>
</svg>
